<svg xmlns="http://www.w3.org/2000/svg" xmlns:xlink="http://www.w3.org/1999/xlink" version="1.1" width="651.968" height="651.968" viewBox="0 0 651.968 651.968">
<defs>
<clipPath id="clip_1">
<path transform="matrix(1,0,0,-1,0,651.968)" d="M0 651.969H651.969V0H0Z"/>
</clipPath>
</defs>
<title>Jaleca</title>
<g>
<g>
<g clip-path="url(#clip_1)">
<path transform="matrix(1,0,0,-1,328.6685,620.73727)" d="M0 0C-86.009 0-167.522 37.447-223.638 102.744-269.497 156.099-294.755 224.294-294.755 294.755-294.755 457.287-162.529 589.507 0 589.507 162.529 589.507 294.755 457.287 294.755 294.755 294.755 193.628 243.811 100.709 158.478 46.184 111.184 15.966 56.385 0 0 0M0 614.732C-176.435 614.732-319.974 471.19-319.974 294.755-319.974 218.257-292.555 144.234-242.762 86.306-181.854 15.425-93.37-25.225 0-25.225 61.205-25.225 120.701-7.883 172.059 24.931 264.677 84.111 319.974 184.985 319.974 294.755 319.974 471.19 176.435 614.732 0 614.732" fill="#beb192"/>
<path transform="matrix(1,0,0,-1,401.8256,252.4873)" d="M0 0C-4.537 15.872-15.867 41.707-27.683 66.72-19.245 78.349-10.514 88.437-3.716 95.751 2.505 77.561 14.642 45.939 36.208 2.392 55.695-36.953 28.262-81.812-4.329-117.054 11.384-82.329 12.708-44.451 0 0M-92.692 67.547C-85.295 82.886-78.036 97.413-72.529 108.278-67.146 97.682-60.093 83.598-52.894 68.678-51.032 64.825-49.167 60.93-47.313 57.005-45.415 52.99-43.544 48.977-41.712 44.983-32.561 25.098-24.513 6.095-21.05-6.012-6.872-55.61-11.797-93.991-37.021-130.454-44.055-140.62-53.207-152.548-61.122-162.153-61.488-162.592-61.828-162.996-62.185-163.427V-64.767C-62.185-62.85-62.721-61.076-63.586-59.51-65.292-56.423-68.417-54.272-72.101-53.924-72.447-53.891-72.779-53.819-73.131-53.819-73.504-53.819-73.853-53.893-74.216-53.929-77.91-54.297-81.038-56.478-82.724-59.595-83.559-61.142-84.078-62.886-84.078-64.767L-84.062-164.589C-84.416-164.163-84.743-163.787-85.106-163.348-92.681-154.168-101.761-142.207-109.913-130.446-134.953-94.301-139.425-55.97-124.409-6.166-120.819 5.735-112.907 24.271-103.92 43.769-102.079 47.763-100.198 51.787-98.295 55.813-96.433 59.752-94.562 63.668-92.692 67.547M-182.521 2.392C-160.952 45.947-148.815 77.577-142.594 95.759-135.591 88.234-126.532 77.767-117.856 65.69-129.51 41.037-140.669 15.749-145.371 .154-158.692-44.039-157.992-81.639-142.995-115.963-175.139-80.89-201.811-36.546-182.521 2.392M11.909 119.125C10.948 122.846 8.105 125.802 4.416 126.898 .725 127.999-3.26 127.071-6.098 124.469-7.317 123.352-22.305 109.468-38.394 88.962-50.99 114.664-61.892 135.489-62.858 137.329-64.748 140.93-68.481 143.19-72.551 143.19H-72.562C-76.635 143.182-80.371 140.921-82.255 137.307-83.227 135.442-94.345 114.093-107.147 87.937-123.525 108.99-138.98 123.332-140.221 124.469-143.05 127.062-147.038 127.982-150.735 126.898-154.421 125.802-157.267 122.846-158.222 119.125-158.324 118.74-168.437 80.162-202.14 12.112-247.948-80.379-101.192-184.238-84.056-195.944L-84.054-218.669C-85.441-239.513-96.059-255.35-113.942-263.254-134.64-272.411-160.321-269.187-177.852-255.256-195.238-241.433-201.954-218.859-196.762-191.698-195.625-185.757-199.517-180.027-205.458-178.89-211.396-177.745-217.128-181.651-218.263-187.583-227.436-235.55-205.417-261.304-191.475-272.39-176.737-284.109-157.758-290.24-138.796-290.24-127.233-290.231-115.675-287.957-105.092-283.277-79.769-272.085-64.138-249.063-62.185-219.394V-195.894C-44.756-183.974 101.577-80.263 55.824 12.112 22.121 80.162 12.005 118.74 11.909 119.125" fill="#beb192"/>
<path transform="matrix(1,0,0,-1,328.1698,288.99214)" d="M0 0C.107 0 .206 .027 .313 .03 .439 .036 .56 .06 .687 .069 5.221 .343 9.047 3.2 10.668 7.223 11.2 8.55 11.511 9.992 11.511 11.511 11.511 13.889 10.791 16.098 9.555 17.932 8.034 20.193 5.713 21.835 3.021 22.571 2.052 22.835 1.052 23.025 0 23.025-.703 23.025-1.384 22.939-2.055 22.816-4.54 22.368-6.735 21.121-8.391 19.35-10.313 17.292-11.511 14.549-11.511 11.511-11.511 9.333-10.874 7.32-9.822 5.581-7.806 2.249-4.18 0 0 0" fill="#beb192"/>
</g>
</g>
</g>
</svg>
