<svg xmlns="http://www.w3.org/2000/svg" xmlns:xlink="http://www.w3.org/1999/xlink" version="1.1" width="1132.08" height="649.398" viewBox="0 0 1132.08 649.398">
<defs>
<clipPath id="clip_1">
<path transform="matrix(1,0,0,-1,0,649.398)" d="M0 649.398H1132.08V0H0Z"/>
</clipPath>
</defs>
<title>Jaleca Logo</title>
<g>
<g>
<g clip-path="url(#clip_1)">
<path transform="matrix(1,0,0,-1,942.3277,304.70314)" d="M0 0C-31.315 0-60.993 13.634-81.424 37.408-98.121 56.834-107.317 81.663-107.317 107.317-107.317 166.493-59.175 214.633 0 214.633 59.175 214.633 107.317 166.493 107.317 107.317 107.317 70.498 88.769 36.667 57.7 16.815 40.481 5.813 20.529 0 0 0M0 223.817C-64.238 223.817-116.499 171.555-116.499 107.317-116.499 79.465-106.516 52.514-88.387 31.423-66.211 5.616-33.995-9.184 0-9.184 22.284-9.184 43.946-2.87 62.645 9.077 96.366 30.624 116.499 67.351 116.499 107.317 116.499 171.555 64.238 223.817 0 223.817" fill="#beb192"/>
<path transform="matrix(1,0,0,-1,968.9634,170.62741)" d="M0 0C-1.652 5.779-5.777 15.185-10.079 24.292-7.007 28.526-3.828 32.199-1.353 34.862 .912 28.239 5.331 16.726 13.183 .871 20.278-13.454 10.29-29.787-1.576-42.618 4.145-29.975 4.627-16.184 0 0M-33.748 24.593C-31.055 30.178-28.412 35.467-26.407 39.423-24.447 35.565-21.879 30.437-19.258 25.005-18.58 23.602-17.901 22.184-17.226 20.755-16.535 19.293-15.854 17.832-15.187 16.378-11.855 9.138-8.925 2.219-7.664-2.189-2.502-20.247-4.295-34.221-13.479-47.497-16.04-51.198-19.372-55.541-22.254-59.038-22.387-59.198-22.511-59.345-22.641-59.502V-23.581C-22.641-22.883-22.836-22.237-23.151-21.667-23.772-20.543-24.91-19.76-26.251-19.633-26.377-19.621-26.498-19.595-26.626-19.595-26.762-19.595-26.889-19.622-27.021-19.635-28.366-19.769-29.505-20.563-30.119-21.698-30.423-22.261-30.612-22.896-30.612-23.581L-30.606-59.925C-30.735-59.77-30.854-59.633-30.986-59.473-33.744-56.131-37.05-51.776-40.018-47.494-49.135-34.334-50.763-20.378-45.296-2.245-43.989 2.088-41.108 8.837-37.836 15.936-37.166 17.39-36.481 18.855-35.788 20.321-35.11 21.755-34.429 23.181-33.748 24.593M-66.454 .871C-58.601 16.729-54.182 28.245-51.917 34.865-49.367 32.125-46.069 28.314-42.91 23.917-47.153 14.941-51.216 5.734-52.928 .056-57.778-16.034-57.523-29.724-52.063-42.221-63.766-29.451-73.477-13.306-66.454 .871M4.336 43.372C3.986 44.727 2.951 45.803 1.608 46.202 .264 46.603-1.187 46.265-2.22 45.318-2.664 44.911-8.121 39.856-13.979 32.39-18.565 41.748-22.534 49.33-22.886 50-23.574 51.311-24.933 52.134-26.415 52.134H-26.419C-27.902 52.131-29.262 51.308-29.948 49.992-30.302 49.313-34.35 41.54-39.011 32.017-44.974 39.682-50.601 44.904-51.053 45.318-52.083 46.262-53.535 46.597-54.881 46.202-56.223 45.803-57.259 44.727-57.607 43.372-57.644 43.232-61.326 29.186-73.597 4.41-90.275-29.265-36.843-67.079-30.604-71.341L-30.603-79.615C-31.108-87.204-34.974-92.97-41.485-95.848-49.021-99.182-58.371-98.008-64.754-92.936-71.084-87.903-73.529-79.684-71.639-69.795-71.225-67.632-72.642-65.546-74.805-65.132-76.967-64.715-79.054-66.137-79.467-68.297-82.807-85.761-74.79-95.138-69.714-99.174-64.348-103.441-57.438-105.673-50.534-105.673-46.324-105.67-42.116-104.842-38.263-103.138-29.043-99.063-23.352-90.681-22.641-79.879V-71.323C-16.295-66.983 36.983-29.223 20.325 4.41 8.054 29.186 4.371 43.232 4.336 43.372" fill="#beb192"/>
<path transform="matrix(1,0,0,-1,942.1461,183.9184)" d="M0 0C.039 0 .075 .01 .114 .011 .16 .013 .204 .022 .25 .025 1.901 .125 3.294 1.165 3.884 2.63 4.078 3.113 4.191 3.638 4.191 4.191 4.191 5.057 3.929 5.861 3.479 6.529 2.925 7.352 2.08 7.95 1.1 8.218 .747 8.314 .383 8.383 0 8.383-.256 8.383-.504 8.352-.748 8.307-1.653 8.144-2.452 7.69-3.055 7.045-3.755 6.296-4.191 5.297-4.191 4.191-4.191 3.398-3.959 2.665-3.576 2.032-2.842 .819-1.522 0 0 0" fill="#beb192"/>
<path transform="matrix(1,0,0,-1,312.3023,521.6176)" d="M0 0V-17.102C0-19.835-.704-21.991-2.109-23.563-3.515-25.136-5.521-25.924-8.126-25.924-9.931-25.924-11.42-25.568-12.594-24.86-13.768-24.149-14.593-23.163-15.071-21.898-15.548-20.636-15.645-19.141-15.36-17.411L-13.542-16.984C-13.852-19.334-13.562-21.113-12.671-22.325-11.782-23.537-10.28-24.145-8.164-24.145-5.92-24.145-4.321-23.486-3.367-22.172-2.413-20.856-1.935-19.023-1.935-16.677V0Z" fill="#00afa8"/>
<path transform="matrix(1,0,0,-1,0,649.398)" d="M322.942 112.031H336.52299V110.252H322.942ZM318.416 102.244 328.63 127.78H330.913L341.127 102.244H339.077L330.719 123.177 329.791 125.884H329.752L328.824 123.254 320.466 102.244Z" fill="#00afa8"/>
<path transform="matrix(1,0,0,-1,350.1426,545.3744)" d="M0 0H15.322V-1.779H-1.935V23.757H0Z" fill="#00afa8"/>
<path transform="matrix(1,0,0,-1,372.6607,547.1537)" d="M0 0V25.536H17.45V23.757H1.935V13.89H14.2V12.07H1.935V1.779H18.068V0Z" fill="#00afa8"/>
<path transform="matrix(1,0,0,-1,418.1617,540.69186)" d="M0 0C-.49-1.419-1.219-2.646-2.186-3.676-3.153-4.71-4.314-5.494-5.668-6.038-7.022-6.579-8.538-6.85-10.214-6.85-12.536-6.85-14.567-6.313-16.309-5.242-18.049-4.174-19.404-2.657-20.371-.697-21.338 1.263-21.821 3.599-21.821 6.306-21.821 9.014-21.345 11.35-20.39 13.31-19.436 15.269-18.088 16.785-16.347 17.854-14.606 18.926-12.575 19.461-10.253 19.461-8.525 19.461-7.009 19.223-5.707 18.745-4.405 18.268-3.302 17.558-2.398 16.616-1.497 15.675-.812 14.521-.348 13.155L-2.244 12.265C-2.837 14.044-3.779 15.391-5.068 16.309-6.358 17.224-8.047 17.682-10.137 17.682-12.046 17.682-13.729 17.224-15.186 16.309-16.644 15.391-17.772 14.089-18.572 12.399-19.371 10.711-19.771 8.68-19.771 6.306-19.771 3.959-19.378 1.934-18.591 .23-17.805-1.472-16.689-2.781-15.244-3.696-13.8-4.611-12.123-5.07-10.214-5.07-8.151-5.07-6.397-4.574-4.952-3.58-3.508-2.588-2.502-1.148-1.935 .734Z" fill="#00afa8"/>
<path transform="matrix(1,0,0,-1,436.3076,523.0102)" d="M0 0C-1.987 0-3.708-.458-5.166-1.373-6.623-2.291-7.745-3.599-8.532-5.301-9.318-7.003-9.711-9.029-9.711-11.376-9.711-13.723-9.318-15.748-8.532-17.451-7.745-19.153-6.623-20.463-5.166-21.378-3.708-22.293-1.987-22.752 0-22.752 2.012-22.752 3.739-22.293 5.185-21.378 6.628-20.463 7.751-19.153 8.55-17.451 9.35-15.748 9.75-13.723 9.75-11.376 9.75-9.029 9.35-7.003 8.55-5.301 7.751-3.599 6.628-2.291 5.185-1.373 3.739-.458 2.012 0 0 0M0 1.779C2.424 1.779 4.513 1.244 6.268 .173 8.021-.896 9.376-2.413 10.331-4.372 11.284-6.332 11.762-8.668 11.762-11.376 11.762-14.083 11.284-16.419 10.331-18.379 9.376-20.339 8.021-21.855 6.268-22.924 4.513-23.995 2.424-24.531 0-24.531-2.399-24.531-4.482-23.995-6.249-22.924-8.016-21.855-9.377-20.339-10.331-18.379-11.285-16.419-11.762-14.083-11.762-11.376-11.762-8.668-11.285-6.332-10.331-4.372-9.377-2.413-8.016-.896-6.249 .173-4.482 1.244-2.399 1.779 0 1.779" fill="#00afa8"/>
<path transform="matrix(1,0,0,-1,464.7071,521.2309)" d="M0 0C2.347 0 4.327-.464 5.939-1.392 7.551-2.322 8.783-3.741 9.634-5.647L8.009-6.887C7.261-5.083 6.21-3.778 4.856-2.98 3.502-2.18 1.831-1.779-.155-1.779-1.677-1.779-2.967-2.018-4.024-2.495-5.082-2.973-5.881-3.606-6.422-4.391-6.964-5.179-7.235-6.062-7.235-7.043-7.235-8.201-6.854-9.178-6.094-9.962-5.333-10.75-3.908-11.376-1.818-11.84L3.173-12.922C5.674-13.465 7.435-14.239 8.454-15.245 9.473-16.25 9.982-17.564 9.982-19.19 9.982-20.583 9.576-21.821 8.764-22.905 7.951-23.987 6.835-24.828 5.417-25.419 3.998-26.014 2.334-26.311 .426-26.311-1.406-26.311-3.038-26.059-4.469-25.555-5.9-25.054-7.106-24.343-8.086-23.428-9.067-22.513-9.789-21.41-10.253-20.118L-8.55-18.804C-8.19-20.018-7.59-21.055-6.751-21.919-5.914-22.783-4.875-23.434-3.637-23.873-2.399-24.311-1.02-24.531 .503-24.531 1.947-24.531 3.236-24.329 4.372-23.932 5.507-23.531 6.39-22.945 7.022-22.171 7.654-21.396 7.971-20.442 7.971-19.307 7.971-18.223 7.589-17.308 6.829-16.56 6.068-15.813 4.72-15.245 2.786-14.857L-2.476-13.696C-4.102-13.335-5.417-12.858-6.422-12.264-7.429-11.673-8.158-10.957-8.609-10.119-9.06-9.281-9.286-8.331-9.286-7.273-9.286-5.958-8.913-4.754-8.164-3.656-7.416-2.562-6.346-1.679-4.953-1.005-3.56-.337-1.909 0 0 0" fill="#00afa8"/>
<path transform="matrix(1,0,0,-1,497.5161,547.1537)" d="M0 0V25.536H17.45V23.757H1.934V13.89H14.199V12.07H1.934V1.779H18.068V0Z" fill="#00afa8"/>
<path transform="matrix(1,0,0,-1,561.7047,521.6176)" d="M0 0V-25.536H-1.858V-6.5L-1.625-1.856H-1.664L-10.988-25.536H-12.769L-22.093-1.856H-22.132L-21.9-6.5V-25.536H-23.757V0H-20.855L-13.156-19.345-11.879-23.253H-11.84L-10.602-19.385-2.902 0Z" fill="#00afa8"/>
<path transform="matrix(1,0,0,-1,0,649.398)" d="M574.008 102.244H572.073V127.78H574.008Z" fill="#00afa8"/>
<path transform="matrix(1,0,0,-1,608.1334,521.6176)" d="M0 0V-25.536H-1.857V-6.5L-1.625-1.856H-1.664L-10.988-25.536H-12.769L-22.093-1.856H-22.132L-21.899-6.5V-25.536H-23.757V0H-20.854L-13.155-19.345-11.879-23.253H-11.84L-10.602-19.385-2.901 0Z" fill="#00afa8"/>
<path transform="matrix(1,0,0,-1,628.6392,523.0102)" d="M0 0C-1.986 0-3.708-.458-5.165-1.373-6.623-2.291-7.745-3.599-8.531-5.301-9.318-7.003-9.711-9.029-9.711-11.376-9.711-13.723-9.318-15.748-8.531-17.451-7.745-19.153-6.623-20.463-5.165-21.378-3.708-22.293-1.986-22.752 0-22.752 2.012-22.752 3.74-22.293 5.185-21.378 6.629-20.463 7.751-19.153 8.551-17.451 9.351-15.748 9.751-13.723 9.751-11.376 9.751-9.029 9.351-7.003 8.551-5.301 7.751-3.599 6.629-2.291 5.185-1.373 3.74-.458 2.012 0 0 0M0 1.779C2.425 1.779 4.514 1.244 6.269 .173 8.021-.896 9.376-2.413 10.331-4.372 11.285-6.332 11.762-8.668 11.762-11.376 11.762-14.083 11.285-16.419 10.331-18.379 9.376-20.339 8.021-21.855 6.269-22.924 4.514-23.995 2.425-24.531 0-24.531-2.399-24.531-4.482-23.995-6.249-22.924-8.016-21.855-9.377-20.339-10.33-18.379-11.285-16.419-11.762-14.083-11.762-11.376-11.762-8.668-11.285-6.332-10.33-4.372-9.377-2.413-8.016-.896-6.249 .173-4.482 1.244-2.399 1.779 0 1.779" fill="#00afa8"/>
<path transform="matrix(1,0,0,-1,657.0386,521.2309)" d="M0 0C2.347 0 4.327-.464 5.939-1.392 7.551-2.322 8.783-3.741 9.634-5.647L8.01-6.887C7.261-5.083 6.21-3.778 4.856-2.98 3.502-2.18 1.831-1.779-.154-1.779-1.677-1.779-2.966-2.018-4.023-2.495-5.082-2.973-5.881-3.606-6.422-4.391-6.964-5.179-7.235-6.062-7.235-7.043-7.235-8.201-6.854-9.178-6.094-9.962-5.333-10.75-3.907-11.376-1.818-11.84L3.173-12.922C5.675-13.465 7.436-14.239 8.454-15.245 9.473-16.25 9.982-17.564 9.982-19.19 9.982-20.583 9.576-21.821 8.764-22.905 7.951-23.987 6.835-24.828 5.417-25.419 3.998-26.014 2.335-26.311 .426-26.311-1.405-26.311-3.037-26.059-4.469-25.555-5.899-25.054-7.106-24.343-8.086-23.428-9.066-22.513-9.789-21.41-10.253-20.118L-8.55-18.804C-8.189-20.018-7.59-21.055-6.751-21.919-5.914-22.783-4.875-23.434-3.637-23.873-2.398-24.311-1.02-24.531 .504-24.531 1.947-24.531 3.237-24.329 4.372-23.932 5.508-23.531 6.391-22.945 7.022-22.171 7.654-21.396 7.971-20.442 7.971-19.307 7.971-18.223 7.59-17.308 6.829-16.56 6.068-15.813 4.721-15.245 2.786-14.857L-2.476-13.696C-4.102-13.335-5.417-12.858-6.422-12.264-7.429-11.673-8.158-10.957-8.608-10.119-9.06-9.281-9.285-8.331-9.285-7.273-9.285-5.958-8.912-4.754-8.164-3.656-7.416-2.562-6.346-1.679-4.952-1.005-3.56-.337-1.909 0 0 0" fill="#00afa8"/>
<path transform="matrix(1,0,0,-1,219.7154,267.7011)" d="M0 0H-5.808C-8.241 0-10.213-1.973-10.213-4.405V-126.017C-10.213-143.757-13.821-157.596-21.032-167.537-28.244-177.478-40.329-182.448-57.286-182.448-73.271-182.448-84.625-177.87-91.349-168.707-97.284-160.623-99.689-149.197-98.563-134.428-98.379-132.184-101.067-129.794-104.235-129.555-104.235-129.555-111.287-128.241-112.115-134.559-113.687-146.365-112.809-156.678-109.477-165.491-105.873-175.045-99.636-182.499-90.765-187.859-81.897-193.215-70.64-195.898-56.994-195.898-37.308-195.898-22.156-189.956-11.527-178.064-.906-166.175 4.406-149.899 4.406-129.235V-4.405C4.406-1.973 2.433 0 0 0" fill="#00afa8"/>
<path transform="matrix(1,0,0,-1,336.4014,428.0766)" d="M0 0C-2.924-5.167-6.872-9.455-11.843-12.864-16.813-16.276-22.222-18.762-28.07-20.318-33.917-21.883-39.668-22.659-45.32-22.659-56.431-22.659-65.011-20.369-71.05-15.787-77.094-11.21-80.113-4.824-80.113 3.364-80.113 10.968-77.29 17.006-71.634 21.491-65.984 25.973-57.408 29.385-45.905 31.726L3.679 41.534C3.951 41.583 4.202 41.626 4.386 41.653V18.861C4.386 11.448 2.923 5.164 0 0M37.859-22.011C36.354-22.248 34.748-22.367 33.039-22.367 23.683-22.367 19.005-17.203 19.005-6.87V66.226C19.005 77.339 16.761 86.592 12.279 94.004 7.792 101.408 1.506 107.015-6.58 110.815-14.67 114.617-24.076 116.518-34.795 116.518-49.61 116.518-62.037 113.347-72.073 107.015-81.042 101.355-87.716 93.635-92.092 83.857-92.994 81.843-92.303 79.463-90.439 78.28L-86.051 75.497C-83.777 74.057-80.772 74.995-79.68 77.454-75.845 86.085-70.534 92.43-63.741 96.487-55.75 101.262-46.198 103.65-35.087 103.65-22.418 103.65-12.674 100.143-5.847 93.127 .973 86.109 4.386 76.265 4.386 63.593V53.967L1.425 53.37 1.428 53.366-53.214 42.544C-66.472 40.007-76.75 35.382-84.061 28.655-91.37 21.931-95.025 13.108-95.025 2.196-95.025-5.993-92.979-12.864-88.885-18.418-84.792-23.974-79.14-28.215-71.927-31.14-64.718-34.06-56.532-35.522-47.366-35.522-39.574-35.522-31.774-34.208-23.975-31.577-16.183-28.944-9.311-24.851-3.363-19.295-.149-16.293 2.335-12.796 4.324-8.967 4.594-14.771 5.618-19.668 7.749-23.242 10.182-27.338 13.35-30.261 17.25-32.013 21.147-33.769 25.336-34.646 29.823-34.646 33.742-34.646 37.119-34.159 39.957-33.187 41.619-32.616 42.757-31.087 42.888-29.334L43.088-26.658C43.306-23.76 40.73-21.558 37.859-22.011" fill="#00afa8"/>
<path transform="matrix(1,0,0,-1,431.1411,449.34614)" d="M0 0C-.663-.194-1.3-.365-1.909-.511-4.348-1.098-7.61-1.39-11.703-1.39-18.333-1.39-23.206 .461-26.322 4.167-29.442 7.867-31.001 14.203-31.001 23.17V178.684C-31.001 181.118-32.973 183.089-35.406 183.089H-41.214C-43.647 183.089-45.62 181.118-45.62 178.684V22.588C-45.62 9.914-43.039 .606-37.872-5.336-32.709-11.285-24.962-14.253-14.626-14.253-10.73-14.253-7.171-13.912-3.956-13.23-1.747-12.759 .3-12.176 2.187-11.479 3.702-10.918 4.805-9.604 5.059-8.009L5.539-4.988C6.044-1.81 3.088 .908 0 0" fill="#00afa8"/>
<path transform="matrix(1,0,0,-1,447.5572,377.3559)" d="M0 0C.897 8.82 2.55 17.001 5.794 23.84 10.275 33.289 16.511 40.505 24.506 45.475 32.497 50.445 41.757 52.93 52.283 52.93 67.487 52.93 79.425 47.959 88.099 38.02 95.818 29.172 100.179 17.619 101.185 3.369 101.188 3.334 101.197 3.302 101.2 3.268 101.253 2.183 101.295 .746 101.241-.477L100.782-.471ZM86.492 57.025C77.136 62.873 65.829 65.797 52.576 65.797 39.71 65.797 28.162 62.772 17.929 56.731 7.694 50.687-.397 41.967-6.34 30.564-12.289 19.161-15.257 5.564-15.257-10.224-15.257-26.013-12.289-39.607-6.34-51.012-.397-62.415 7.84-71.14 18.367-77.182 28.893-83.225 40.88-86.243 54.329-86.243 63.49-86.243 71.873-84.879 79.476-82.151 87.076-79.423 93.802-75.571 99.649-70.602 104.362-66.596 108.315-61.924 111.51-56.588 112.783-54.462 112.076-51.696 109.928-50.462L105.794-48.085C103.755-46.911 101.147-47.551 99.901-49.547 95.621-56.405 90.031-61.912 83.129-66.068 75.039-70.944 65.34-73.38 54.038-73.38 43.119-73.38 33.52-70.893 25.238-65.923 16.95-60.952 10.518-53.694 5.94-44.142 1.726-35.357-.318-24.904-.656-13.147H111.159C113.469-13.147 115.401-11.372 115.555-9.067 115.566-8.918 115.576-8.769 115.585-8.617 115.681-6.964 115.73-5.253 115.73-3.499 115.73 10.143 113.195 22.18 108.127 32.611 103.056 43.037 95.848 51.178 86.492 57.025" fill="#00afa8"/>
<path transform="matrix(1,0,0,-1,703.067,419.2035)" d="M0 0-4.818 1.677C-7.193 2.503-9.753 1.163-10.468-1.249-12.05-6.584-14.561-11.317-18.005-15.449-22.391-20.713-27.945-24.712-34.67-27.439-41.396-30.169-48.851-31.532-57.038-31.532-67.957-31.532-77.409-29.045-85.399-24.075-93.394-19.104-99.63-11.847-104.111-2.294-108.599 7.254-110.836 18.564-110.836 31.624-110.836 44.878-108.599 56.229-104.111 65.688-99.63 75.137-93.293 82.353-85.106 87.322-76.919 92.293-67.469 94.777-56.745 94.777-44.857 94.777-35.063 91.9-27.361 86.154-20.795 81.248-15.895 74.606-12.659 66.229-11.74 63.85-9.011 62.733-6.701 63.813L-1.114 66.43C1.057 67.445 1.986 70.003 1.059 72.213-1.732 78.862-5.409 84.632-9.964 89.516-15.424 95.363-22.053 99.846-29.846 102.966-37.645 106.08-46.512 107.645-56.454 107.645-69.71 107.645-81.552 104.62-91.977 98.579-102.407 92.535-110.595 83.814-116.538 72.412-122.486 61.009-125.456 47.412-125.456 31.624-125.456 15.835-122.532 2.24-116.684-9.164-110.836-20.567-102.7-29.292-92.27-35.334-81.845-41.377-70.004-44.396-56.745-44.396-46.613-44.396-37.449-42.687-29.262-39.279-21.074-35.872-14.107-30.945-8.356-24.515-3.546-19.13 .141-12.86 2.702-5.701 3.532-3.379 2.33-.811 0 0" fill="#00afa8"/>
<path transform="matrix(1,0,0,-1,813.857,428.0766)" d="M0 0C-2.923-5.167-6.87-9.455-11.842-12.864-16.812-16.276-22.221-18.762-28.068-20.318-33.917-21.883-39.667-22.659-45.319-22.659-56.43-22.659-65.009-20.369-71.05-15.787-77.093-11.21-80.112-4.824-80.112 3.364-80.112 10.968-77.29 17.006-71.634 21.491-65.982 25.973-57.407 29.385-45.903 31.726L3.476 41.493C3.813 41.556 4.15 41.614 4.386 41.65V18.861C4.386 11.448 2.925 5.164 0 0M37.861-22.011C36.355-22.248 34.748-22.367 33.039-22.367 23.683-22.367 19.005-17.203 19.005-6.87V66.226C19.005 77.339 16.762 86.592 12.28 94.004 7.794 101.408 1.508 107.015-6.578 110.815-14.669 114.617-24.076 116.518-34.794 116.518-49.61 116.518-62.035 113.347-72.073 107.015-81.041 101.355-87.715 93.635-92.091 83.857-92.994 81.843-92.303 79.463-90.438 78.28L-86.049 75.497C-83.777 74.057-80.771 74.995-79.678 77.454-75.845 86.085-70.533 92.43-63.739 96.487-55.749 101.262-46.196 103.65-35.086 103.65-22.418 103.65-12.673 100.143-5.847 93.127 .974 86.109 4.386 76.265 4.386 63.593V53.963L1.445 53.37V53.369L-53.214 42.544C-66.472 40.007-76.75 35.382-84.06 28.655-91.369 21.931-95.025 13.108-95.025 2.196-95.025-5.993-92.978-12.864-88.884-18.418-84.791-23.974-79.14-28.215-71.927-31.14-64.717-34.06-56.531-35.522-47.365-35.522-39.572-35.522-31.773-34.208-23.976-31.577-16.182-28.944-9.311-24.851-3.361-19.295-.149-16.293 2.337-12.799 4.325-8.97 4.595-14.774 5.619-19.668 7.749-23.242 10.184-27.338 13.35-30.261 17.251-32.013 21.147-33.769 25.338-34.646 29.824-34.646 33.742-34.646 37.12-34.159 39.958-33.187 41.62-32.616 42.759-31.087 42.89-29.334L43.09-26.658C43.308-23.76 40.731-21.558 37.861-22.011" fill="#00afa8"/>
</g>
</g>
</g>
</svg>
